<svg width="180" height="88" viewBox="0 0 180 88" fill="none" xmlns="http://www.w3.org/2000/svg">
<rect x="30.5" y="30.5" width="55.9844" height="27" rx="2" fill="#EFEFEF"/>
<path d="M42.749 43.8447H40.2266L40.3975 42.7852L42.5508 42.792C42.9017 42.792 43.2321 42.7305 43.542 42.6074C43.8564 42.4844 44.1185 42.2998 44.3281 42.0537C44.5423 41.8076 44.6722 41.4977 44.7178 41.124C44.7633 40.7686 44.7269 40.4837 44.6084 40.2695C44.4899 40.0508 44.3076 39.8936 44.0615 39.7979C43.82 39.6976 43.5352 39.6429 43.207 39.6338L41.252 39.627L39.7139 48.5H38.4219L40.1514 38.5469L43.2344 38.5537C43.6491 38.5628 44.0319 38.6198 44.3828 38.7246C44.7383 38.8249 45.0436 38.9798 45.2988 39.1895C45.554 39.3945 45.7454 39.6589 45.873 39.9824C46.0052 40.306 46.0531 40.6934 46.0166 41.1445C45.9801 41.6322 45.8252 42.0423 45.5518 42.375C45.2829 42.7077 44.9434 42.9697 44.5332 43.1611C44.1276 43.348 43.7061 43.471 43.2686 43.5303L42.749 43.8447ZM41.8945 48.5H38.873L39.7822 47.4268L41.9287 47.4336C42.3161 47.4336 42.6738 47.363 43.002 47.2217C43.3301 47.0804 43.6012 46.873 43.8154 46.5996C44.0342 46.3262 44.1686 45.9889 44.2188 45.5879C44.2598 45.2324 44.2324 44.9271 44.1367 44.6719C44.041 44.4167 43.877 44.2207 43.6445 44.084C43.4121 43.9427 43.1159 43.8652 42.7559 43.8516L40.8486 43.8447L41.0469 42.7852L43.4736 42.792L43.6855 43.1748C44.0957 43.2386 44.4398 43.3844 44.7178 43.6123C45.0003 43.8356 45.2054 44.1182 45.333 44.46C45.4652 44.7972 45.5176 45.1686 45.4902 45.5742C45.4401 46.2259 45.2441 46.7705 44.9023 47.208C44.5651 47.641 44.1322 47.9668 43.6035 48.1855C43.0749 48.3997 42.5052 48.5046 41.8945 48.5ZM51.4033 46.7227L52.374 41.1035H53.6182L52.333 48.5H51.1504L51.4033 46.7227ZM51.8682 45.2324L52.374 45.2119C52.3148 45.6768 52.21 46.1188 52.0596 46.5381C51.9092 46.9528 51.7041 47.3219 51.4443 47.6455C51.1891 47.9645 50.8701 48.2152 50.4873 48.3975C50.109 48.5752 49.6602 48.6572 49.1406 48.6436C48.735 48.6299 48.3955 48.5479 48.1221 48.3975C47.8532 48.2471 47.6413 48.0443 47.4863 47.7891C47.3314 47.5339 47.2288 47.2422 47.1787 46.9141C47.1286 46.5859 47.1217 46.2396 47.1582 45.875L47.958 41.1035H49.1953L48.3955 45.8955C48.3773 46.096 48.375 46.2943 48.3887 46.4902C48.4023 46.6816 48.4434 46.8571 48.5117 47.0166C48.5801 47.1761 48.6849 47.306 48.8262 47.4062C48.972 47.502 49.1634 47.5544 49.4004 47.5635C49.8926 47.5817 50.3096 47.4906 50.6514 47.29C50.9932 47.085 51.2643 46.8024 51.4648 46.4424C51.6654 46.0824 51.7998 45.679 51.8682 45.2324ZM58.4922 41.1035L58.3213 42.0742H54.4316L54.6025 41.1035H58.4922ZM56.2295 39.3057H57.46L56.209 46.6816C56.1953 46.8411 56.1999 46.9847 56.2227 47.1123C56.2454 47.2399 56.3001 47.3424 56.3867 47.4199C56.4733 47.4928 56.6055 47.5316 56.7832 47.5361C56.8835 47.5361 56.9814 47.5293 57.0771 47.5156C57.1774 47.4974 57.2777 47.4814 57.3779 47.4678L57.2891 48.5068C57.1432 48.5479 56.9928 48.5775 56.8379 48.5957C56.6875 48.6185 56.5371 48.6276 56.3867 48.623C56.0085 48.6185 55.7122 48.5228 55.498 48.3359C55.2839 48.1491 55.138 47.9076 55.0605 47.6113C54.9831 47.3151 54.9603 46.9984 54.9922 46.6611L56.2295 39.3057ZM62.9355 41.1035L62.7646 42.0742H58.875L59.0459 41.1035H62.9355ZM60.6729 39.3057H61.9033L60.6523 46.6816C60.6387 46.8411 60.6432 46.9847 60.666 47.1123C60.6888 47.2399 60.7435 47.3424 60.8301 47.4199C60.9167 47.4928 61.0488 47.5316 61.2266 47.5361C61.3268 47.5361 61.4248 47.5293 61.5205 47.5156C61.6208 47.4974 61.721 47.4814 61.8213 47.4678L61.7324 48.5068C61.5866 48.5479 61.4362 48.5775 61.2812 48.5957C61.1309 48.6185 60.9805 48.6276 60.8301 48.623C60.4518 48.6185 60.1556 48.5228 59.9414 48.3359C59.7272 48.1491 59.5814 47.9076 59.5039 47.6113C59.4264 47.3151 59.4036 46.9984 59.4355 46.6611L60.6729 39.3057ZM63.2637 44.9248L63.2842 44.7676C63.3389 44.2708 63.4619 43.7923 63.6533 43.332C63.8493 42.8717 64.1068 42.4616 64.4258 42.1016C64.7448 41.7415 65.123 41.459 65.5605 41.2539C65.998 41.0488 66.4857 40.9531 67.0234 40.9668C67.543 40.9759 67.9873 41.0876 68.3564 41.3018C68.7301 41.516 69.0309 41.8008 69.2588 42.1562C69.4912 42.5072 69.653 42.9036 69.7441 43.3457C69.8353 43.7878 69.8581 44.2435 69.8125 44.7129L69.7988 44.8701C69.7396 45.3669 69.612 45.8431 69.416 46.2988C69.2201 46.7546 68.9603 47.1602 68.6367 47.5156C68.3177 47.8711 67.9395 48.1514 67.502 48.3564C67.0645 48.557 66.5791 48.6504 66.0459 48.6367C65.5309 48.6276 65.0866 48.5182 64.7129 48.3086C64.3438 48.0944 64.0452 47.8118 63.8174 47.4609C63.5895 47.11 63.43 46.7158 63.3389 46.2783C63.2477 45.8408 63.2227 45.3896 63.2637 44.9248ZM64.5146 44.7676L64.501 44.9316C64.4691 45.2188 64.4668 45.5173 64.4941 45.8271C64.526 46.137 64.599 46.4242 64.7129 46.6885C64.8314 46.9528 65.0023 47.1693 65.2256 47.3379C65.4489 47.5065 65.7383 47.5954 66.0938 47.6045C66.472 47.6136 66.8047 47.5407 67.0918 47.3857C67.3789 47.2262 67.6227 47.012 67.8232 46.7432C68.0283 46.4743 68.1901 46.1758 68.3086 45.8477C68.4316 45.5195 68.5137 45.1937 68.5547 44.8701L68.5684 44.7129C68.6003 44.4258 68.6003 44.1273 68.5684 43.8174C68.541 43.5029 68.4681 43.2113 68.3496 42.9424C68.2357 42.6689 68.0671 42.4479 67.8438 42.2793C67.6204 42.1061 67.3311 42.015 66.9756 42.0059C66.5973 41.9922 66.2624 42.0674 65.9707 42.2314C65.6836 42.391 65.4398 42.6074 65.2393 42.8809C65.0387 43.1543 64.877 43.4574 64.7539 43.79C64.6354 44.1182 64.5557 44.444 64.5146 44.7676ZM72.9297 42.7578L71.9316 48.5H70.6943L71.9795 41.1035H73.1484L72.9297 42.7578ZM72.3555 44.5215L71.8496 44.5078C71.9134 44.0658 72.0296 43.6328 72.1982 43.209C72.3714 42.7806 72.597 42.3955 72.875 42.0537C73.1576 41.7119 73.4925 41.443 73.8799 41.2471C74.2718 41.0465 74.7184 40.9531 75.2197 40.9668C75.6162 40.9759 75.9466 41.0534 76.2109 41.1992C76.4798 41.3405 76.6895 41.5342 76.8398 41.7803C76.9902 42.0264 77.0905 42.3112 77.1406 42.6348C77.1908 42.9538 77.1953 43.2933 77.1543 43.6533L76.3477 48.5H75.1035L75.9238 43.6328C75.9557 43.3366 75.9443 43.07 75.8896 42.833C75.8395 42.5915 75.7256 42.4001 75.5479 42.2588C75.3747 42.113 75.124 42.0355 74.7959 42.0264C74.4495 42.0173 74.1374 42.0833 73.8594 42.2246C73.5814 42.3659 73.3376 42.5596 73.1279 42.8057C72.9229 43.0472 72.7542 43.3184 72.6221 43.6191C72.4945 43.9154 72.4056 44.2161 72.3555 44.5215Z" fill="black" fill-opacity="0.85"/>
<rect x="30.5" y="30.5" width="55.9844" height="27" rx="2" stroke="#767676"/>
<rect x="0.25" y="0.25" width="179.5" height="87.5" rx="4.75" stroke="white" stroke-width="0.5" stroke-dasharray="10 5"/>
</svg>
