<svg width="180" height="89" viewBox="0 0 180 89" fill="none" xmlns="http://www.w3.org/2000/svg">
<rect x="30.5" y="31" width="55.9844" height="27" rx="2" fill="#EFEFEF"/>
<path d="M42.749 44.3447H40.2266L40.3975 43.2852L42.5508 43.292C42.9017 43.292 43.2321 43.2305 43.542 43.1074C43.8564 42.9844 44.1185 42.7998 44.3281 42.5537C44.5423 42.3076 44.6722 41.9977 44.7178 41.624C44.7633 41.2686 44.7269 40.9837 44.6084 40.7695C44.4899 40.5508 44.3076 40.3936 44.0615 40.2979C43.82 40.1976 43.5352 40.1429 43.207 40.1338L41.252 40.127L39.7139 49H38.4219L40.1514 39.0469L43.2344 39.0537C43.6491 39.0628 44.0319 39.1198 44.3828 39.2246C44.7383 39.3249 45.0436 39.4798 45.2988 39.6895C45.554 39.8945 45.7454 40.1589 45.873 40.4824C46.0052 40.806 46.0531 41.1934 46.0166 41.6445C45.9801 42.1322 45.8252 42.5423 45.5518 42.875C45.2829 43.2077 44.9434 43.4697 44.5332 43.6611C44.1276 43.848 43.7061 43.971 43.2686 44.0303L42.749 44.3447ZM41.8945 49H38.873L39.7822 47.9268L41.9287 47.9336C42.3161 47.9336 42.6738 47.863 43.002 47.7217C43.3301 47.5804 43.6012 47.373 43.8154 47.0996C44.0342 46.8262 44.1686 46.4889 44.2188 46.0879C44.2598 45.7324 44.2324 45.4271 44.1367 45.1719C44.041 44.9167 43.877 44.7207 43.6445 44.584C43.4121 44.4427 43.1159 44.3652 42.7559 44.3516L40.8486 44.3447L41.0469 43.2852L43.4736 43.292L43.6855 43.6748C44.0957 43.7386 44.4398 43.8844 44.7178 44.1123C45.0003 44.3356 45.2054 44.6182 45.333 44.96C45.4652 45.2972 45.5176 45.6686 45.4902 46.0742C45.4401 46.7259 45.2441 47.2705 44.9023 47.708C44.5651 48.141 44.1322 48.4668 43.6035 48.6855C43.0749 48.8997 42.5052 49.0046 41.8945 49ZM51.4033 47.2227L52.374 41.6035H53.6182L52.333 49H51.1504L51.4033 47.2227ZM51.8682 45.7324L52.374 45.7119C52.3148 46.1768 52.21 46.6188 52.0596 47.0381C51.9092 47.4528 51.7041 47.8219 51.4443 48.1455C51.1891 48.4645 50.8701 48.7152 50.4873 48.8975C50.109 49.0752 49.6602 49.1572 49.1406 49.1436C48.735 49.1299 48.3955 49.0479 48.1221 48.8975C47.8532 48.7471 47.6413 48.5443 47.4863 48.2891C47.3314 48.0339 47.2288 47.7422 47.1787 47.4141C47.1286 47.0859 47.1217 46.7396 47.1582 46.375L47.958 41.6035H49.1953L48.3955 46.3955C48.3773 46.596 48.375 46.7943 48.3887 46.9902C48.4023 47.1816 48.4434 47.3571 48.5117 47.5166C48.5801 47.6761 48.6849 47.806 48.8262 47.9062C48.972 48.002 49.1634 48.0544 49.4004 48.0635C49.8926 48.0817 50.3096 47.9906 50.6514 47.79C50.9932 47.585 51.2643 47.3024 51.4648 46.9424C51.6654 46.5824 51.7998 46.179 51.8682 45.7324ZM58.4922 41.6035L58.3213 42.5742H54.4316L54.6025 41.6035H58.4922ZM56.2295 39.8057H57.46L56.209 47.1816C56.1953 47.3411 56.1999 47.4847 56.2227 47.6123C56.2454 47.7399 56.3001 47.8424 56.3867 47.9199C56.4733 47.9928 56.6055 48.0316 56.7832 48.0361C56.8835 48.0361 56.9814 48.0293 57.0771 48.0156C57.1774 47.9974 57.2777 47.9814 57.3779 47.9678L57.2891 49.0068C57.1432 49.0479 56.9928 49.0775 56.8379 49.0957C56.6875 49.1185 56.5371 49.1276 56.3867 49.123C56.0085 49.1185 55.7122 49.0228 55.498 48.8359C55.2839 48.6491 55.138 48.4076 55.0605 48.1113C54.9831 47.8151 54.9603 47.4984 54.9922 47.1611L56.2295 39.8057ZM62.9355 41.6035L62.7646 42.5742H58.875L59.0459 41.6035H62.9355ZM60.6729 39.8057H61.9033L60.6523 47.1816C60.6387 47.3411 60.6432 47.4847 60.666 47.6123C60.6888 47.7399 60.7435 47.8424 60.8301 47.9199C60.9167 47.9928 61.0488 48.0316 61.2266 48.0361C61.3268 48.0361 61.4248 48.0293 61.5205 48.0156C61.6208 47.9974 61.721 47.9814 61.8213 47.9678L61.7324 49.0068C61.5866 49.0479 61.4362 49.0775 61.2812 49.0957C61.1309 49.1185 60.9805 49.1276 60.8301 49.123C60.4518 49.1185 60.1556 49.0228 59.9414 48.8359C59.7272 48.6491 59.5814 48.4076 59.5039 48.1113C59.4264 47.8151 59.4036 47.4984 59.4355 47.1611L60.6729 39.8057ZM63.2637 45.4248L63.2842 45.2676C63.3389 44.7708 63.4619 44.2923 63.6533 43.832C63.8493 43.3717 64.1068 42.9616 64.4258 42.6016C64.7448 42.2415 65.123 41.959 65.5605 41.7539C65.998 41.5488 66.4857 41.4531 67.0234 41.4668C67.543 41.4759 67.9873 41.5876 68.3564 41.8018C68.7301 42.016 69.0309 42.3008 69.2588 42.6562C69.4912 43.0072 69.653 43.4036 69.7441 43.8457C69.8353 44.2878 69.8581 44.7435 69.8125 45.2129L69.7988 45.3701C69.7396 45.8669 69.612 46.3431 69.416 46.7988C69.2201 47.2546 68.9603 47.6602 68.6367 48.0156C68.3177 48.3711 67.9395 48.6514 67.502 48.8564C67.0645 49.057 66.5791 49.1504 66.0459 49.1367C65.5309 49.1276 65.0866 49.0182 64.7129 48.8086C64.3438 48.5944 64.0452 48.3118 63.8174 47.9609C63.5895 47.61 63.43 47.2158 63.3389 46.7783C63.2477 46.3408 63.2227 45.8896 63.2637 45.4248ZM64.5146 45.2676L64.501 45.4316C64.4691 45.7188 64.4668 46.0173 64.4941 46.3271C64.526 46.637 64.599 46.9242 64.7129 47.1885C64.8314 47.4528 65.0023 47.6693 65.2256 47.8379C65.4489 48.0065 65.7383 48.0954 66.0938 48.1045C66.472 48.1136 66.8047 48.0407 67.0918 47.8857C67.3789 47.7262 67.6227 47.512 67.8232 47.2432C68.0283 46.9743 68.1901 46.6758 68.3086 46.3477C68.4316 46.0195 68.5137 45.6937 68.5547 45.3701L68.5684 45.2129C68.6003 44.9258 68.6003 44.6273 68.5684 44.3174C68.541 44.0029 68.4681 43.7113 68.3496 43.4424C68.2357 43.1689 68.0671 42.9479 67.8438 42.7793C67.6204 42.6061 67.3311 42.515 66.9756 42.5059C66.5973 42.4922 66.2624 42.5674 65.9707 42.7314C65.6836 42.891 65.4398 43.1074 65.2393 43.3809C65.0387 43.6543 64.877 43.9574 64.7539 44.29C64.6354 44.6182 64.5557 44.944 64.5146 45.2676ZM72.9297 43.2578L71.9316 49H70.6943L71.9795 41.6035H73.1484L72.9297 43.2578ZM72.3555 45.0215L71.8496 45.0078C71.9134 44.5658 72.0296 44.1328 72.1982 43.709C72.3714 43.2806 72.597 42.8955 72.875 42.5537C73.1576 42.2119 73.4925 41.943 73.8799 41.7471C74.2718 41.5465 74.7184 41.4531 75.2197 41.4668C75.6162 41.4759 75.9466 41.5534 76.2109 41.6992C76.4798 41.8405 76.6895 42.0342 76.8398 42.2803C76.9902 42.5264 77.0905 42.8112 77.1406 43.1348C77.1908 43.4538 77.1953 43.7933 77.1543 44.1533L76.3477 49H75.1035L75.9238 44.1328C75.9557 43.8366 75.9443 43.57 75.8896 43.333C75.8395 43.0915 75.7256 42.9001 75.5479 42.7588C75.3747 42.613 75.124 42.5355 74.7959 42.5264C74.4495 42.5173 74.1374 42.5833 73.8594 42.7246C73.5814 42.8659 73.3376 43.0596 73.1279 43.3057C72.9229 43.5472 72.7542 43.8184 72.6221 44.1191C72.4945 44.4154 72.4056 44.7161 72.3555 45.0215Z" fill="black" fill-opacity="0.85"/>
<rect x="30.5" y="31" width="55.9844" height="27" rx="2" stroke="#767676"/>
<rect x="0.25" y="0.75" width="179.5" height="87.5" rx="4.75" stroke="white" stroke-width="0.5" stroke-dasharray="10 5"/>
</svg>
