<svg width="56" height="56" viewBox="0 0 56 56" fill="none" xmlns="http://www.w3.org/2000/svg">
<path d="M6.67793e-07 0C7.35403 8.76959e-08 14.636 1.44848 21.4303 4.26275C28.2245 7.07701 34.3979 11.2019 39.598 16.402C44.7981 21.6021 48.923 27.7755 51.7373 34.5697C54.5515 41.364 56 48.646 56 56L36.4 56C36.4 51.2199 35.4585 46.4866 33.6292 42.0703C31.7999 37.6541 29.1187 33.6414 25.7387 30.2613C22.3586 26.8813 18.3459 24.2001 13.9297 22.3708C9.51343 20.5415 4.78012 19.6 4.34066e-07 19.6L6.67793e-07 0Z" fill="#0077B4" fill-opacity="0.33"/>
</svg>
