<svg width="112" height="113" viewBox="0 0 112 113" fill="none" xmlns="http://www.w3.org/2000/svg">
<path d="M56 0.5C69.3338 0.5 82.23 5.25767 92.3691 13.9173C102.508 22.5769 109.225 34.5701 111.311 47.7397C113.396 60.9093 110.715 74.391 103.748 85.7599C96.781 97.1288 85.9861 105.639 73.3049 109.759C60.6238 113.88 46.8885 113.34 34.5697 108.237C22.2509 103.135 12.157 93.8039 6.10363 81.9235C0.0502229 70.043 -1.56542 56.3924 1.54729 43.427C4.66 30.4617 12.2968 19.0324 23.084 11.195L34.6046 27.0518C27.5929 32.1461 22.629 39.5751 20.6057 48.0026C18.5825 56.4301 19.6326 65.3029 23.5674 73.0252C27.5021 80.7476 34.0631 86.8125 42.0703 90.1292C50.0775 93.4459 59.0054 93.7967 67.2482 91.1185C75.491 88.4402 82.5076 82.9087 87.0361 75.519C91.5646 68.1292 93.3077 59.366 91.9519 50.8058C90.596 42.2455 86.2303 34.45 79.6399 28.8212C73.0495 23.1925 64.667 20.1 56 20.1L56 0.5Z" fill="#FFBC3D"/>
</svg>
