<svg width="56" height="113" viewBox="0 0 56 113" fill="none" xmlns="http://www.w3.org/2000/svg">
<path d="M6.67793e-07 0.5C7.35403 0.5 14.636 1.94848 21.4303 4.76275C28.2245 7.57701 34.3979 11.7019 39.598 16.902C44.7981 22.1021 48.923 28.2755 51.7373 35.0697C54.5515 41.864 56 49.146 56 56.5C56 63.854 54.5515 71.1361 51.7372 77.9303C48.923 84.7245 44.7981 90.8979 39.598 96.098C34.3979 101.298 28.2245 105.423 21.4303 108.237C14.636 111.052 7.35401 112.5 -1.89149e-05 112.5L-1.22947e-05 92.9C4.7801 92.9 9.51341 91.9585 13.9297 90.1292C18.3459 88.2999 22.3586 85.6187 25.7387 82.2387C29.1187 78.8586 31.7999 74.8459 33.6292 70.4297C35.4585 66.0134 36.4 61.2801 36.4 56.5C36.4 51.7199 35.4585 46.9866 33.6292 42.5703C31.7999 38.1541 29.1187 34.1414 25.7387 30.7613C22.3586 27.3813 18.3459 24.7001 13.9297 22.8708C9.51343 21.0415 4.78012 20.1 4.34066e-07 20.1L6.67793e-07 0.5Z" fill="#ED7000"/>
</svg>
