<svg width="18" height="19" viewBox="0 0 18 19" fill="none" xmlns="http://www.w3.org/2000/svg">
<path d="M11.179 9.12105C11.179 8.17368 10.3263 7.32105 9.37896 7.32105C8.43159 7.32105 7.57896 8.17368 7.57896 9.12105C7.57896 10.0684 8.43159 10.9211 9.37895 10.9211C10.3263 10.9211 11.179 10.1632 11.179 9.12105Z" fill="black"/>
<path d="M11.179 15.8474C11.179 14.9 10.3263 14.0474 9.37896 14.0474C8.43159 14.0474 7.57896 14.9 7.57896 15.8474C7.57896 16.7947 8.43159 17.6474 9.37895 17.6474C10.3263 17.6474 11.179 16.8895 11.179 15.8474Z" fill="black"/>
<path d="M11.179 2.39474C11.179 1.44737 10.3263 0.594737 9.37896 0.594737C8.43159 0.594737 7.57896 1.44737 7.57896 2.39474C7.57896 3.34211 8.43159 4.19474 9.37895 4.19474C10.3263 4.19474 11.179 3.43684 11.179 2.39474Z" fill="black"/>
</svg>
