<svg width="22" height="22" viewBox="0 0 22 22" fill="none" xmlns="http://www.w3.org/2000/svg">
<path fill-rule="evenodd" clip-rule="evenodd" d="M8.69481 9.04001C4.35618 9.60001 0.666321 11 0.666321 15.56C0.666321 19.64 3.66687 21.88 7.84331 21.84C11.006 21.84 12.8713 20.72 14.0877 19H14.1282C14.2904 20.08 14.4932 20.88 14.8176 21.32H21.3052V21.04C20.7376 20.68 20.5754 19.72 20.5754 18.08V7.64001C20.5754 5.04001 19.6833 3.00001 17.8992 1.72001C16.3584 0.600008 14.2499 0.0400085 11.0871 0.0400085C4.76166 0.0400085 1.76112 3.32001 1.59892 7.16001H7.72166C7.9244 5.40001 8.97865 4.48001 11.1277 4.48001C13.1551 4.48001 14.0066 5.40001 14.0066 6.72001C14.0066 8.16001 12.628 8.56001 8.69481 9.04001ZM14.2093 11.48V13.96C14.2093 16.16 12.4658 17.68 9.99235 17.68C8.32988 17.68 7.11344 17 7.11344 15.36C7.11344 13.76 8.16769 13.12 10.7628 12.56C12.1008 12.24 13.3578 11.92 14.2093 11.48Z" fill="black"/>
</svg>
