<svg width="16" height="16" viewBox="0 0 16 16" fill="none" xmlns="http://www.w3.org/2000/svg">
<path fill-rule="evenodd" clip-rule="evenodd" d="M14.6527 7.40515C14.2317 7.8262 14.2317 8.58409 14.6527 9.00515L15.158 9.51041C15.5791 9.93146 15.4106 10.4367 14.8212 10.6051L14.0633 10.7736C13.3896 10.942 13.0527 11.6157 13.2212 12.2051L13.3896 12.8788C13.4738 13.3841 13.2212 13.7209 12.8001 13.7209H12.5475L11.7896 13.5525H11.537C11.0317 13.5525 10.6106 13.8894 10.4422 14.3946L10.2738 15.0683C10.1896 15.4894 9.93695 15.6578 9.68432 15.6578C9.5159 15.6578 9.34748 15.5736 9.17906 15.4051L8.6738 14.8999C8.42117 14.6473 8.16853 14.563 7.83169 14.563C7.49485 14.563 7.24222 14.6473 6.98959 14.8999L6.48432 15.4051C6.3159 15.5736 6.14748 15.6578 5.97906 15.6578C5.72643 15.6578 5.4738 15.4894 5.38959 15.0683L5.22117 14.3946C5.13695 13.8894 4.63169 13.5525 4.12643 13.5525H3.8738L3.1159 13.7209H2.86327C2.35801 13.7209 2.10538 13.3841 2.2738 12.8788L2.44222 12.2051C2.52643 11.5315 2.18959 10.942 1.60011 10.7736L0.842218 10.6051C0.252744 10.4367 0.0843232 9.93146 0.505376 9.4262L1.01064 8.92094C1.43169 8.49988 1.43169 7.74199 1.01064 7.32094L0.505376 6.81567C0.0843232 6.39462 0.252744 5.88936 0.842218 5.72094L1.60011 5.4683C2.18959 5.29988 2.52643 4.71041 2.35801 4.12094L2.18959 3.44725C2.10538 2.94199 2.35801 2.60515 2.77906 2.60515H3.03169L3.78959 2.77357H4.04222C4.54748 2.77357 4.96853 2.43673 5.13696 1.93146L5.38959 1.25778C5.4738 0.836726 5.72643 0.668304 5.97906 0.668304C6.14748 0.668304 6.3159 0.752515 6.48432 0.920936L6.98959 1.4262C7.24222 1.67883 7.49485 1.76304 7.83169 1.76304C8.16853 1.76304 8.42117 1.67883 8.6738 1.4262L9.17906 0.920936C9.34748 0.752515 9.5159 0.668304 9.68432 0.668304C9.93695 0.668304 10.1896 0.920936 10.2738 1.25778L10.4422 1.93146C10.5264 2.43673 11.0317 2.77357 11.537 2.77357H11.7896L12.5475 2.60515H12.8001C13.3054 2.60515 13.558 2.94199 13.3896 3.44725L13.2212 4.12094C13.137 4.79462 13.4738 5.38409 14.0633 5.55252L14.8212 5.72094C15.4949 5.88936 15.5791 6.39462 15.158 6.81567L14.6527 7.40515ZM14.1474 9.84734L13.979 9.67892C13.1369 8.83681 13.1369 7.48945 13.979 6.64734L14.1474 6.47892L13.8948 6.39471C12.8001 6.14208 12.1264 4.96313 12.379 3.86839L12.4632 3.53155L12.1264 3.61576C11.958 3.69997 11.7895 3.69997 11.6211 3.69997C10.6948 3.69997 9.85269 3.1105 9.60006 2.18418V1.84734L9.34743 2.09997C8.92638 2.52103 8.3369 2.68945 7.83164 2.68945C7.32638 2.68945 6.7369 2.52103 6.40006 2.26839L6.14743 2.01576L6.06322 2.26839C5.81059 3.1105 4.96848 3.78418 4.04217 3.78418C3.95796 3.78418 3.87375 3.76313 3.78954 3.74208C3.70532 3.72102 3.62111 3.69997 3.5369 3.69997L3.20006 3.61576L3.28427 3.86839C3.62111 4.96313 2.94743 6.05787 1.85269 6.39471L1.51585 6.47892L1.60006 6.73155C2.35796 7.57366 2.35796 8.83681 1.60006 9.67892L1.43164 9.84734L1.68427 9.93155C2.77901 10.1842 3.45269 11.3631 3.20006 12.4579L3.11585 12.7105L3.45269 12.6263C3.62111 12.5421 3.78954 12.5421 3.95796 12.5421C4.88427 12.5421 5.72638 13.1316 5.97901 14.0579L6.06322 14.3105L6.31585 14.0579C6.65269 13.6368 7.15796 13.4684 7.74743 13.4684C8.3369 13.4684 8.84217 13.6368 9.26322 14.0579L9.51585 14.3105L9.60006 14.0579C9.85269 13.2158 10.6948 12.5421 11.6211 12.5421C11.7053 12.5421 11.7895 12.5631 11.8737 12.5842C11.958 12.6052 12.0422 12.6263 12.1264 12.6263L12.4632 12.7105L12.379 12.4579C12.1264 11.3631 12.8001 10.2684 13.8948 9.93155L14.1474 9.84734Z" fill="black"/>
</svg>
