<svg width="18" height="18" viewBox="0 0 18 18" fill="none" xmlns="http://www.w3.org/2000/svg">
<path fill-rule="evenodd" clip-rule="evenodd" d="M12.0493 10.9895L17.7335 16.6737L16.9946 17.4505L11.3104 11.7663C9.02142 13.7134 5.68655 13.807 3.2919 11.9916C0.897251 10.1761 0.0869257 6.93986 1.34353 4.21018C2.60013 1.4805 5.58567 -0.00836385 8.52205 0.630312C11.4584 1.26899 13.5558 3.86341 13.5651 6.86843C13.5687 8.37914 13.031 9.84116 12.0493 10.9895ZM2.25126 8.89788C3.07625 10.8921 5.02171 12.1926 7.17984 12.1926C8.59355 12.1952 9.95022 11.6353 10.9508 10.6366C11.9513 9.63781 12.5135 8.28214 12.5135 6.86843C12.5174 4.7103 11.2203 2.76254 9.22753 1.934C7.23477 1.10546 4.93911 1.55945 3.41172 3.08412C1.88433 4.6088 1.42627 6.90365 2.25126 8.89788Z" fill="black"/>
</svg>
