<svg width="187" height="89" viewBox="0 0 187 89" fill="none" xmlns="http://www.w3.org/2000/svg">
<rect x="31.1875" y="31" width="55.9844" height="27" rx="2" fill="#EFEFEF"/>
<path d="M43.4365 44.3447H40.9141L41.085 43.2852L43.2383 43.292C43.5892 43.292 43.9196 43.2305 44.2295 43.1074C44.5439 42.9844 44.806 42.7998 45.0156 42.5537C45.2298 42.3076 45.3597 41.9977 45.4053 41.624C45.4508 41.2686 45.4144 40.9837 45.2959 40.7695C45.1774 40.5508 44.9951 40.3936 44.749 40.2979C44.5075 40.1976 44.2227 40.1429 43.8945 40.1338L41.9395 40.127L40.4014 49H39.1094L40.8389 39.0469L43.9219 39.0537C44.3366 39.0628 44.7194 39.1198 45.0703 39.2246C45.4258 39.3249 45.7311 39.4798 45.9863 39.6895C46.2415 39.8945 46.4329 40.1589 46.5605 40.4824C46.6927 40.806 46.7406 41.1934 46.7041 41.6445C46.6676 42.1322 46.5127 42.5423 46.2393 42.875C45.9704 43.2077 45.6309 43.4697 45.2207 43.6611C44.8151 43.848 44.3936 43.971 43.9561 44.0303L43.4365 44.3447ZM42.582 49H39.5605L40.4697 47.9268L42.6162 47.9336C43.0036 47.9336 43.3613 47.863 43.6895 47.7217C44.0176 47.5804 44.2887 47.373 44.5029 47.0996C44.7217 46.8262 44.8561 46.4889 44.9062 46.0879C44.9473 45.7324 44.9199 45.4271 44.8242 45.1719C44.7285 44.9167 44.5645 44.7207 44.332 44.584C44.0996 44.4427 43.8034 44.3652 43.4434 44.3516L41.5361 44.3447L41.7344 43.2852L44.1611 43.292L44.373 43.6748C44.7832 43.7386 45.1273 43.8844 45.4053 44.1123C45.6878 44.3356 45.8929 44.6182 46.0205 44.96C46.1527 45.2972 46.2051 45.6686 46.1777 46.0742C46.1276 46.7259 45.9316 47.2705 45.5898 47.708C45.2526 48.141 44.8197 48.4668 44.291 48.6855C43.7624 48.8997 43.1927 49.0046 42.582 49ZM52.0908 47.2227L53.0615 41.6035H54.3057L53.0205 49H51.8379L52.0908 47.2227ZM52.5557 45.7324L53.0615 45.7119C53.0023 46.1768 52.8975 46.6188 52.7471 47.0381C52.5967 47.4528 52.3916 47.8219 52.1318 48.1455C51.8766 48.4645 51.5576 48.7152 51.1748 48.8975C50.7965 49.0752 50.3477 49.1572 49.8281 49.1436C49.4225 49.1299 49.083 49.0479 48.8096 48.8975C48.5407 48.7471 48.3288 48.5443 48.1738 48.2891C48.0189 48.0339 47.9163 47.7422 47.8662 47.4141C47.8161 47.0859 47.8092 46.7396 47.8457 46.375L48.6455 41.6035H49.8828L49.083 46.3955C49.0648 46.596 49.0625 46.7943 49.0762 46.9902C49.0898 47.1816 49.1309 47.3571 49.1992 47.5166C49.2676 47.6761 49.3724 47.806 49.5137 47.9062C49.6595 48.002 49.8509 48.0544 50.0879 48.0635C50.5801 48.0817 50.9971 47.9906 51.3389 47.79C51.6807 47.585 51.9518 47.3024 52.1523 46.9424C52.3529 46.5824 52.4873 46.179 52.5557 45.7324ZM59.1797 41.6035L59.0088 42.5742H55.1191L55.29 41.6035H59.1797ZM56.917 39.8057H58.1475L56.8965 47.1816C56.8828 47.3411 56.8874 47.4847 56.9102 47.6123C56.9329 47.7399 56.9876 47.8424 57.0742 47.9199C57.1608 47.9928 57.293 48.0316 57.4707 48.0361C57.571 48.0361 57.6689 48.0293 57.7646 48.0156C57.8649 47.9974 57.9652 47.9814 58.0654 47.9678L57.9766 49.0068C57.8307 49.0479 57.6803 49.0775 57.5254 49.0957C57.375 49.1185 57.2246 49.1276 57.0742 49.123C56.696 49.1185 56.3997 49.0228 56.1855 48.8359C55.9714 48.6491 55.8255 48.4076 55.748 48.1113C55.6706 47.8151 55.6478 47.4984 55.6797 47.1611L56.917 39.8057ZM63.623 41.6035L63.4521 42.5742H59.5625L59.7334 41.6035H63.623ZM61.3604 39.8057H62.5908L61.3398 47.1816C61.3262 47.3411 61.3307 47.4847 61.3535 47.6123C61.3763 47.7399 61.431 47.8424 61.5176 47.9199C61.6042 47.9928 61.7363 48.0316 61.9141 48.0361C62.0143 48.0361 62.1123 48.0293 62.208 48.0156C62.3083 47.9974 62.4085 47.9814 62.5088 47.9678L62.4199 49.0068C62.2741 49.0479 62.1237 49.0775 61.9688 49.0957C61.8184 49.1185 61.668 49.1276 61.5176 49.123C61.1393 49.1185 60.8431 49.0228 60.6289 48.8359C60.4147 48.6491 60.2689 48.4076 60.1914 48.1113C60.1139 47.8151 60.0911 47.4984 60.123 47.1611L61.3604 39.8057ZM63.9512 45.4248L63.9717 45.2676C64.0264 44.7708 64.1494 44.2923 64.3408 43.832C64.5368 43.3717 64.7943 42.9616 65.1133 42.6016C65.4323 42.2415 65.8105 41.959 66.248 41.7539C66.6855 41.5488 67.1732 41.4531 67.7109 41.4668C68.2305 41.4759 68.6748 41.5876 69.0439 41.8018C69.4176 42.016 69.7184 42.3008 69.9463 42.6562C70.1787 43.0072 70.3405 43.4036 70.4316 43.8457C70.5228 44.2878 70.5456 44.7435 70.5 45.2129L70.4863 45.3701C70.4271 45.8669 70.2995 46.3431 70.1035 46.7988C69.9076 47.2546 69.6478 47.6602 69.3242 48.0156C69.0052 48.3711 68.627 48.6514 68.1895 48.8564C67.752 49.057 67.2666 49.1504 66.7334 49.1367C66.2184 49.1276 65.7741 49.0182 65.4004 48.8086C65.0312 48.5944 64.7327 48.3118 64.5049 47.9609C64.277 47.61 64.1175 47.2158 64.0264 46.7783C63.9352 46.3408 63.9102 45.8896 63.9512 45.4248ZM65.2021 45.2676L65.1885 45.4316C65.1566 45.7188 65.1543 46.0173 65.1816 46.3271C65.2135 46.637 65.2865 46.9242 65.4004 47.1885C65.5189 47.4528 65.6898 47.6693 65.9131 47.8379C66.1364 48.0065 66.4258 48.0954 66.7812 48.1045C67.1595 48.1136 67.4922 48.0407 67.7793 47.8857C68.0664 47.7262 68.3102 47.512 68.5107 47.2432C68.7158 46.9743 68.8776 46.6758 68.9961 46.3477C69.1191 46.0195 69.2012 45.6937 69.2422 45.3701L69.2559 45.2129C69.2878 44.9258 69.2878 44.6273 69.2559 44.3174C69.2285 44.0029 69.1556 43.7113 69.0371 43.4424C68.9232 43.1689 68.7546 42.9479 68.5312 42.7793C68.3079 42.6061 68.0186 42.515 67.6631 42.5059C67.2848 42.4922 66.9499 42.5674 66.6582 42.7314C66.3711 42.891 66.1273 43.1074 65.9268 43.3809C65.7262 43.6543 65.5645 43.9574 65.4414 44.29C65.3229 44.6182 65.2432 44.944 65.2021 45.2676ZM73.6172 43.2578L72.6191 49H71.3818L72.667 41.6035H73.8359L73.6172 43.2578ZM73.043 45.0215L72.5371 45.0078C72.6009 44.5658 72.7171 44.1328 72.8857 43.709C73.0589 43.2806 73.2845 42.8955 73.5625 42.5537C73.8451 42.2119 74.18 41.943 74.5674 41.7471C74.9593 41.5465 75.4059 41.4531 75.9072 41.4668C76.3037 41.4759 76.6341 41.5534 76.8984 41.6992C77.1673 41.8405 77.377 42.0342 77.5273 42.2803C77.6777 42.5264 77.778 42.8112 77.8281 43.1348C77.8783 43.4538 77.8828 43.7933 77.8418 44.1533L77.0352 49H75.791L76.6113 44.1328C76.6432 43.8366 76.6318 43.57 76.5771 43.333C76.527 43.0915 76.4131 42.9001 76.2354 42.7588C76.0622 42.613 75.8115 42.5355 75.4834 42.5264C75.137 42.5173 74.8249 42.5833 74.5469 42.7246C74.2689 42.8659 74.0251 43.0596 73.8154 43.3057C73.6104 43.5472 73.4417 43.8184 73.3096 44.1191C73.182 44.4154 73.0931 44.7161 73.043 45.0215Z" fill="black" fill-opacity="0.85"/>
<rect x="31.1875" y="31" width="55.9844" height="27" rx="2" stroke="#767676"/>
<rect x="97.6724" y="30.5005" width="58.9834" height="27.999" rx="7.9995" fill="#FF8589"/>
<path d="M110.648 44.502H108.112L108.099 43.251H110.313C110.687 43.251 111.004 43.1963 111.264 43.0869C111.528 42.973 111.729 42.8112 111.865 42.6016C112.002 42.3874 112.07 42.1299 112.07 41.8291C112.07 41.4964 112.007 41.2253 111.879 41.0156C111.751 40.806 111.555 40.6533 111.291 40.5576C111.031 40.4619 110.699 40.4141 110.293 40.4141H108.632V49H106.916V39.0469H110.293C110.84 39.0469 111.327 39.0993 111.756 39.2041C112.189 39.3089 112.556 39.473 112.856 39.6963C113.162 39.915 113.392 40.193 113.547 40.5303C113.706 40.8675 113.786 41.2686 113.786 41.7334C113.786 42.1436 113.688 42.5195 113.492 42.8613C113.296 43.1986 113.007 43.4743 112.624 43.6885C112.241 43.9027 111.765 44.0303 111.195 44.0713L110.648 44.502ZM110.573 49H107.572L108.345 47.6396H110.573C110.961 47.6396 111.284 47.5758 111.544 47.4482C111.804 47.3161 111.997 47.1361 112.125 46.9082C112.257 46.6758 112.323 46.4046 112.323 46.0947C112.323 45.7712 112.266 45.4909 112.152 45.2539C112.038 45.0124 111.858 44.8278 111.612 44.7002C111.366 44.568 111.045 44.502 110.648 44.502H108.721L108.734 43.251H111.243L111.633 43.7227C112.18 43.7409 112.629 43.8617 112.979 44.085C113.335 44.3083 113.599 44.5977 113.772 44.9531C113.946 45.3086 114.032 45.6914 114.032 46.1016C114.032 46.735 113.893 47.266 113.615 47.6943C113.342 48.1227 112.948 48.4486 112.433 48.6719C111.918 48.8906 111.298 49 110.573 49ZM120.048 47.2568V41.6035H121.702V49H120.144L120.048 47.2568ZM120.28 45.7188L120.834 45.7051C120.834 46.2018 120.779 46.6598 120.67 47.0791C120.561 47.4938 120.392 47.8561 120.164 48.166C119.936 48.4714 119.645 48.7106 119.289 48.8838C118.934 49.0524 118.507 49.1367 118.011 49.1367C117.651 49.1367 117.32 49.0843 117.02 48.9795C116.719 48.8747 116.459 48.7129 116.24 48.4941C116.026 48.2754 115.86 47.9906 115.741 47.6396C115.623 47.2887 115.563 46.8695 115.563 46.3818V41.6035H117.211V46.3955C117.211 46.6644 117.243 46.89 117.307 47.0723C117.37 47.25 117.457 47.3936 117.566 47.5029C117.676 47.6123 117.803 47.6898 117.949 47.7354C118.095 47.7809 118.25 47.8037 118.414 47.8037C118.883 47.8037 119.253 47.7126 119.521 47.5303C119.795 47.3434 119.989 47.0928 120.103 46.7783C120.221 46.4639 120.28 46.1107 120.28 45.7188ZM126.781 41.6035V42.8066H122.611V41.6035H126.781ZM123.814 39.792H125.462V46.9561C125.462 47.1839 125.494 47.3594 125.558 47.4824C125.626 47.6009 125.719 47.6807 125.838 47.7217C125.956 47.7627 126.095 47.7832 126.255 47.7832C126.369 47.7832 126.478 47.7764 126.583 47.7627C126.688 47.749 126.772 47.7354 126.836 47.7217L126.843 48.9795C126.706 49.0205 126.547 49.057 126.364 49.0889C126.187 49.1208 125.981 49.1367 125.749 49.1367C125.371 49.1367 125.036 49.0706 124.744 48.9385C124.452 48.8018 124.225 48.5807 124.061 48.2754C123.896 47.9701 123.814 47.5645 123.814 47.0586V39.792ZM131.443 41.6035V42.8066H127.273V41.6035H131.443ZM128.477 39.792H130.124V46.9561C130.124 47.1839 130.156 47.3594 130.22 47.4824C130.288 47.6009 130.382 47.6807 130.5 47.7217C130.618 47.7627 130.757 47.7832 130.917 47.7832C131.031 47.7832 131.14 47.7764 131.245 47.7627C131.35 47.749 131.434 47.7354 131.498 47.7217L131.505 48.9795C131.368 49.0205 131.209 49.057 131.026 49.0889C130.849 49.1208 130.644 49.1367 130.411 49.1367C130.033 49.1367 129.698 49.0706 129.406 48.9385C129.115 48.8018 128.887 48.5807 128.723 48.2754C128.559 47.9701 128.477 47.5645 128.477 47.0586V39.792ZM132.236 45.3838V45.2266C132.236 44.6934 132.314 44.1989 132.469 43.7432C132.624 43.2829 132.847 42.8841 133.139 42.5469C133.435 42.2051 133.795 41.9408 134.219 41.7539C134.647 41.5625 135.13 41.4668 135.668 41.4668C136.21 41.4668 136.693 41.5625 137.117 41.7539C137.546 41.9408 137.908 42.2051 138.204 42.5469C138.5 42.8841 138.726 43.2829 138.881 43.7432C139.036 44.1989 139.113 44.6934 139.113 45.2266V45.3838C139.113 45.917 139.036 46.4115 138.881 46.8672C138.726 47.3229 138.5 47.7217 138.204 48.0635C137.908 48.4007 137.548 48.665 137.124 48.8564C136.7 49.0433 136.219 49.1367 135.682 49.1367C135.139 49.1367 134.654 49.0433 134.226 48.8564C133.802 48.665 133.442 48.4007 133.146 48.0635C132.849 47.7217 132.624 47.3229 132.469 46.8672C132.314 46.4115 132.236 45.917 132.236 45.3838ZM133.884 45.2266V45.3838C133.884 45.7165 133.918 46.0309 133.986 46.3271C134.055 46.6234 134.162 46.8831 134.308 47.1064C134.453 47.3298 134.64 47.5052 134.868 47.6328C135.096 47.7604 135.367 47.8242 135.682 47.8242C135.987 47.8242 136.251 47.7604 136.475 47.6328C136.702 47.5052 136.889 47.3298 137.035 47.1064C137.181 46.8831 137.288 46.6234 137.356 46.3271C137.429 46.0309 137.466 45.7165 137.466 45.3838V45.2266C137.466 44.8984 137.429 44.5885 137.356 44.2969C137.288 44.0007 137.179 43.7386 137.028 43.5107C136.882 43.2829 136.696 43.1051 136.468 42.9775C136.244 42.8454 135.978 42.7793 135.668 42.7793C135.358 42.7793 135.089 42.8454 134.861 42.9775C134.638 43.1051 134.453 43.2829 134.308 43.5107C134.162 43.7386 134.055 44.0007 133.986 44.2969C133.918 44.5885 133.884 44.8984 133.884 45.2266ZM142.128 43.1826V49H140.48V41.6035H142.032L142.128 43.1826ZM141.834 45.0283L141.301 45.0215C141.305 44.4974 141.378 44.0166 141.52 43.5791C141.665 43.1416 141.866 42.7656 142.121 42.4512C142.381 42.1367 142.691 41.8952 143.051 41.7266C143.411 41.5534 143.812 41.4668 144.254 41.4668C144.609 41.4668 144.931 41.5169 145.218 41.6172C145.509 41.7129 145.758 41.8701 145.963 42.0889C146.173 42.3076 146.332 42.5924 146.441 42.9434C146.551 43.2897 146.605 43.7158 146.605 44.2217V49H144.951V44.2148C144.951 43.8594 144.899 43.5791 144.794 43.374C144.694 43.1644 144.546 43.0163 144.35 42.9297C144.158 42.8385 143.919 42.793 143.632 42.793C143.349 42.793 143.096 42.8522 142.873 42.9707C142.65 43.0892 142.461 43.251 142.306 43.4561C142.155 43.6611 142.039 43.8981 141.957 44.167C141.875 44.4359 141.834 44.723 141.834 45.0283Z" fill="white"/>
<rect x="97.6724" y="30.5005" width="58.9834" height="27.999" rx="7.9995" stroke="#767676" stroke-width="0.001"/>
<rect x="0.9375" y="0.75" width="185.469" height="87.5" rx="4.75" stroke="white" stroke-width="0.5" stroke-dasharray="10 5"/>
</svg>
